# xmcd CD database file
#
# Track frame offsets:
#	150
#	24758
#	46105
#	70985
#	121515
#	161753
#	215585
#	242763
#	268585
#	290913
#
# Disc length: 4198 seconds
#
# Revision: 0
# Processed by: cddbd v1.5.1PL2 Copyright (c) Steve Scherf et al.
# Submitted via: CDex 1.51
#
DISCID=8b10640a
DTITLE=Idris Muhammed - Black Rhythm Revolution (LP1) and Peace and Rhythm (LP2)
DYEAR=1900
DGENRE=Jazz
TTITLE0=Express Yourself
TTITLE1=Soulful Drums
TTITLE2=Super Bad
TTITLE3=Wander
TTITLE4=By the Red Sea
TTITLE5=Peace
TTITLE6=Rhythm
TTITLE7=Brother You Know You're Doing Wrong
TTITLE8=Don't Knock My Love - Part I
TTITLE9=I'm a Believer
EXTD=
EXTT0=
EXTT1=
EXTT2=
EXTT3=
EXTT4=
EXTT5=
EXTT6=
EXTT7=
EXTT8=
EXTT9=
PLAYORDER=
